<?xml version="1.0" standalone="no"?>
<!DOCTYPE svg PUBLIC "-//W3C//DTD SVG 20010904//EN"
 "http://www.w3.org/TR/2001/REC-SVG-20010904/DTD/svg10.dtd">
<svg version="1.0" xmlns="http://www.w3.org/2000/svg"
 width="70.000000pt" height="70.000000pt" viewBox="0 0 70.000000 70.000000"
 preserveAspectRatio="xMidYMid meet">
<metadata>
Created by potrace 1.11, written by Peter Selinger 2001-2013
</metadata>
<g transform="translate(0.000000,70.000000) scale(0.100000,-0.100000)"
fill="#000000" stroke="none">
<path d="M267 574 c-106 -61 -117 -78 -117 -175 l0 -79 104 52 103 51 57 -32
c31 -18 56 -39 56 -47 0 -20 -10 -18 -63 16 l-47 29 -105 -50 -105 -51 0 -39
c0 -21 2 -39 4 -39 3 0 48 22 101 49 l96 50 95 -50 c53 -27 97 -49 100 -49 2
0 4 40 4 88 l0 88 -96 58 -96 59 -56 -29 c-75 -39 -72 -38 -72 -21 0 15 90 77
110 77 6 0 55 -22 109 -50 l100 -49 -15 44 c-16 46 -31 59 -130 111 l-61 32
-76 -44z"/>
<path d="M82 351 c-17 -17 -33 -34 -33 -38 -5 -33 -8 -140 -4 -151 4 -12 18
-6 64 24 5 4 14 194 9 194 -2 0 -18 -13 -36 -29z"/>
<path d="M581 287 c1 -92 1 -94 30 -111 16 -9 32 -16 36 -14 4 2 8 32 8 68 2
70 -11 104 -51 133 l-24 18 1 -94z"/>
<path d="M320 270 l-25 -20 24 -19 c23 -18 27 -18 58 -3 18 9 33 18 33 22 0 5
-54 40 -62 40 -1 0 -14 -9 -28 -20z"/>
<path d="M226 223 l-30 -16 23 -18 c29 -23 44 -24 77 -3 l25 17 -28 18 c-33
22 -30 22 -67 2z"/>
<path d="M406 223 l-30 -16 23 -18 c29 -24 49 -24 80 0 l24 19 -31 16 c-37 19
-30 19 -66 -1z"/>
<path d="M317 164 c-34 -18 -34 -25 0 -46 26 -15 30 -15 55 0 35 20 35 28 0
46 -24 12 -31 12 -55 0z"/>
</g>
</svg>
